<svg width="429" height="429" viewBox="0 0 429 429" fill="none" xmlns="http://www.w3.org/2000/svg">
<path d="M299.816 0.214687C298.904 -0.804183 266.059 0.616873 237.477 31.6388C208.895 62.6339 213.293 98.1871 213.936 99.0987C214.58 100.01 254.691 101.431 280.297 65.3687C305.902 29.3061 300.728 1.26037 299.816 0.214687M388.672 314.804C387.385 312.23 326.334 281.718 332.018 223.052C337.702 164.36 376.928 148.273 377.545 146.53C378.162 144.787 361.538 125.348 343.922 115.508C330.989 108.57 316.674 104.595 302.015 103.871C299.119 103.791 289.064 101.324 268.392 106.982C254.771 110.708 224.071 122.774 215.625 123.257C207.153 123.739 181.949 109.261 154.842 105.426C137.494 102.075 119.101 108.939 105.936 114.221C92.7978 119.476 67.8087 134.437 50.3271 174.2C32.8454 213.936 41.9884 276.891 48.5306 296.464C55.0729 316.011 65.2884 348.051 82.6628 371.432C98.1067 397.815 118.591 416.128 127.144 422.349C135.698 428.569 159.829 432.698 176.56 424.145C190.019 415.887 214.311 411.141 223.91 411.49C233.482 411.838 252.358 415.619 271.69 425.941C287 431.223 301.478 429.025 315.984 423.126C330.489 417.201 351.483 394.732 375.99 349.178C385.294 327.996 389.53 316.547 388.672 314.804" fill="black"/>
<path d="M299.816 0.214687C298.904 -0.804183 266.059 0.616873 237.477 31.6388C208.895 62.6339 213.293 98.1871 213.936 99.0987C214.58 100.01 254.691 101.431 280.297 65.3687C305.902 29.3061 300.728 1.26037 299.816 0.214687M388.672 314.804C387.385 312.23 326.334 281.718 332.018 223.052C337.702 164.36 376.928 148.273 377.545 146.53C378.162 144.787 361.538 125.348 343.922 115.508C330.989 108.57 316.674 104.595 302.015 103.871C299.119 103.791 289.064 101.324 268.392 106.982C254.771 110.708 224.071 122.774 215.625 123.257C207.153 123.739 181.949 109.261 154.842 105.426C137.494 102.075 119.101 108.939 105.936 114.221C92.7978 119.476 67.8087 134.437 50.3271 174.2C32.8454 213.936 41.9884 276.891 48.5306 296.464C55.0729 316.011 65.2884 348.051 82.6628 371.432C98.1067 397.815 118.591 416.128 127.144 422.349C135.698 428.569 159.829 432.698 176.56 424.145C190.019 415.887 214.311 411.141 223.91 411.49C233.482 411.838 252.358 415.619 271.69 425.941C287 431.223 301.478 429.025 315.984 423.126C330.489 417.201 351.483 394.732 375.99 349.178C385.294 327.996 389.53 316.547 388.672 314.804" fill="black"/>
</svg>
