<svg width="429" height="429" viewBox="0 0 429 429" fill="none" xmlns="http://www.w3.org/2000/svg">
<path d="M389.773 179.492H375.375V178.75H214.5V250.25H315.521C300.783 291.872 261.181 321.75 214.5 321.75C155.271 321.75 107.25 273.729 107.25 214.5C107.25 155.271 155.271 107.25 214.5 107.25C241.84 107.25 266.713 117.564 285.651 134.411L336.211 83.8516C304.286 54.0987 261.583 35.75 214.5 35.75C115.785 35.75 35.75 115.785 35.75 214.5C35.75 313.215 115.785 393.25 214.5 393.25C313.215 393.25 393.25 313.215 393.25 214.5C393.25 202.515 392.017 190.816 389.773 179.492Z" fill="#FFC107"/>
<path d="M56.3599 131.301L115.088 174.371C130.979 135.028 169.464 107.25 214.5 107.25C241.84 107.25 266.713 117.564 285.651 134.411L336.211 83.8516C304.286 54.0987 261.583 35.75 214.5 35.75C145.842 35.75 86.3005 74.5119 56.3599 131.301Z" fill="#FF3D00"/>
<path d="M214.5 393.25C260.671 393.25 302.624 375.581 334.343 346.847L279.02 300.032C260.47 314.139 237.804 321.769 214.5 321.75C168.007 321.75 128.53 292.104 113.658 250.733L55.3678 295.644C84.9509 353.532 145.029 393.25 214.5 393.25Z" fill="#4CAF50"/>
<path d="M389.773 179.492H375.375V178.75H214.5V250.25H315.521C308.471 270.059 295.772 287.369 278.993 300.041L279.02 300.023L334.343 346.838C330.428 350.395 393.25 303.875 393.25 214.5C393.25 202.515 392.017 190.816 389.773 179.492Z" fill="#1976D2"/>
</svg>
