<svg width="442" height="442" viewBox="0 0 442 442" fill="none" xmlns="http://www.w3.org/2000/svg">
<path d="M401.585 184.931H386.75V184.167H221V257.833H325.082C309.897 300.717 269.095 331.5 221 331.5C159.976 331.5 110.5 282.024 110.5 221C110.5 159.976 159.976 110.5 221 110.5C249.168 110.5 274.795 121.126 294.308 138.484L346.399 86.3926C313.507 55.738 269.509 36.8333 221 36.8333C119.294 36.8333 36.8333 119.294 36.8333 221C36.8333 322.706 119.294 405.167 221 405.167C322.706 405.167 405.167 322.706 405.167 221C405.167 208.652 403.896 196.598 401.585 184.931Z" fill="#FFC107"/>
<path d="M58.0677 135.28L118.576 179.655C134.948 139.119 174.599 110.5 221 110.5C249.168 110.5 274.795 121.126 294.308 138.484L346.399 86.3926C313.507 55.738 269.509 36.8333 221 36.8333C150.262 36.8333 88.9157 76.7699 58.0677 135.28Z" fill="#FF3D00"/>
<path d="M221 405.167C268.57 405.167 311.794 386.962 344.475 357.357L287.475 309.124C268.363 323.658 245.01 331.519 221 331.5C173.098 331.5 132.425 300.956 117.102 258.331L57.0457 304.602C87.5252 364.245 149.424 405.167 221 405.167Z" fill="#4CAF50"/>
<path d="M401.585 184.931H386.75V184.167H221V257.833H325.082C317.818 278.243 304.735 296.077 287.447 309.133L287.475 309.115L344.475 357.348C340.441 361.013 405.167 313.083 405.167 221C405.167 208.652 403.896 196.598 401.585 184.931Z" fill="#1976D2"/>
</svg>
